<mxfile host="app.diagrams.net" modified="2024-05-10T04:59:48.098Z" agent="Mozilla/5.0 (Windows NT 10.0; Win64; x64) AppleWebKit/537.36 (KHTML, like Gecko) Chrome/124.0.0.0 Safari/537.36" etag="lmgY9xRdfQuP-fZK0dMF" version="24.3.1" type="github">
  <diagram name="Strona-1" id="T3RHB5QGo9Cvwa6PiZin">
    <mxGraphModel dx="2261" dy="1915" grid="1" gridSize="10" guides="1" tooltips="1" connect="1" arrows="1" fold="1" page="1" pageScale="1" pageWidth="827" pageHeight="1169" math="0" shadow="0">
      <root>
        <mxCell id="0" />
        <mxCell id="1" parent="0" />
        <mxCell id="ITiyoMhCIWLzSyuYCBin-1" value="Postgres" style="shape=cylinder3;whiteSpace=wrap;html=1;boundedLbl=1;backgroundOutline=1;size=15;fillColor=#d5e8d4;strokeColor=#82b366;" parent="1" vertex="1">
          <mxGeometry x="310" y="470" width="276" height="80" as="geometry" />
        </mxCell>
        <mxCell id="VBNUYF2cGX7sdIRH1Fpj-4" value="His API Gateway" style="rounded=1;whiteSpace=wrap;html=1;strokeWidth=2;arcSize=14;fillColor=#fff2cc;strokeColor=#d6b656;" parent="1" vertex="1">
          <mxGeometry x="120" y="60" width="120" height="60" as="geometry" />
        </mxCell>
        <mxCell id="PzNOZcH71dPl48KpVUS8-1" value="Mob&amp;nbsp;&amp;nbsp;&lt;span style=&quot;background-color: initial;&quot;&gt;API Gateway&lt;/span&gt;" style="rounded=1;whiteSpace=wrap;html=1;strokeWidth=2;arcSize=14;fillColor=#fff2cc;strokeColor=#d6b656;" vertex="1" parent="1">
          <mxGeometry x="120" y="160" width="120" height="60" as="geometry" />
        </mxCell>
        <mxCell id="PzNOZcH71dPl48KpVUS8-2" value="Web API Gateway" style="rounded=1;whiteSpace=wrap;html=1;strokeWidth=2;arcSize=14;fillColor=#fff2cc;strokeColor=#d6b656;" vertex="1" parent="1">
          <mxGeometry x="120" y="260" width="120" height="60" as="geometry" />
        </mxCell>
        <mxCell id="PzNOZcH71dPl48KpVUS8-3" value="Storage&lt;div&gt;Zenko S3&lt;/div&gt;" style="shape=cylinder3;whiteSpace=wrap;html=1;boundedLbl=1;backgroundOutline=1;size=15;" vertex="1" parent="1">
          <mxGeometry x="200" y="470" width="60" height="80" as="geometry" />
        </mxCell>
        <mxCell id="PzNOZcH71dPl48KpVUS8-4" value="Portal Pacjenta" style="rounded=1;whiteSpace=wrap;html=1;" vertex="1" parent="1">
          <mxGeometry x="-70" y="220" width="120" height="60" as="geometry" />
        </mxCell>
        <mxCell id="PzNOZcH71dPl48KpVUS8-5" value="Portal Personelu" style="rounded=1;whiteSpace=wrap;html=1;" vertex="1" parent="1">
          <mxGeometry x="-70" y="300" width="120" height="60" as="geometry" />
        </mxCell>
        <mxCell id="PzNOZcH71dPl48KpVUS8-11" style="edgeStyle=orthogonalEdgeStyle;rounded=0;orthogonalLoop=1;jettySize=auto;html=1;" edge="1" parent="1" source="PzNOZcH71dPl48KpVUS8-6" target="ITiyoMhCIWLzSyuYCBin-1">
          <mxGeometry relative="1" as="geometry" />
        </mxCell>
        <mxCell id="PzNOZcH71dPl48KpVUS8-12" value="JDBC" style="edgeLabel;html=1;align=center;verticalAlign=middle;resizable=0;points=[];" vertex="1" connectable="0" parent="PzNOZcH71dPl48KpVUS8-11">
          <mxGeometry x="0.0111" y="2" relative="1" as="geometry">
            <mxPoint as="offset" />
          </mxGeometry>
        </mxCell>
        <mxCell id="PzNOZcH71dPl48KpVUS8-13" style="edgeStyle=orthogonalEdgeStyle;rounded=0;orthogonalLoop=1;jettySize=auto;html=1;" edge="1" parent="1" source="PzNOZcH71dPl48KpVUS8-6" target="PzNOZcH71dPl48KpVUS8-3">
          <mxGeometry relative="1" as="geometry">
            <Array as="points">
              <mxPoint x="410" y="400" />
              <mxPoint x="230" y="400" />
            </Array>
          </mxGeometry>
        </mxCell>
        <mxCell id="PzNOZcH71dPl48KpVUS8-14" value="HTTP S3" style="edgeLabel;html=1;align=center;verticalAlign=middle;resizable=0;points=[];" vertex="1" connectable="0" parent="PzNOZcH71dPl48KpVUS8-13">
          <mxGeometry x="0.0606" y="1" relative="1" as="geometry">
            <mxPoint as="offset" />
          </mxGeometry>
        </mxCell>
        <mxCell id="PzNOZcH71dPl48KpVUS8-6" value="Usługi&amp;nbsp;" style="rounded=1;whiteSpace=wrap;html=1;" vertex="1" parent="1">
          <mxGeometry x="360" y="190" width="176" height="100" as="geometry" />
        </mxCell>
        <mxCell id="PzNOZcH71dPl48KpVUS8-7" value="Płatności Adapter" style="rounded=1;whiteSpace=wrap;html=1;" vertex="1" parent="1">
          <mxGeometry x="620" y="60" width="120" height="60" as="geometry" />
        </mxCell>
        <mxCell id="PzNOZcH71dPl48KpVUS8-8" value="His Adapter" style="rounded=1;whiteSpace=wrap;html=1;" vertex="1" parent="1">
          <mxGeometry x="620" y="130" width="120" height="60" as="geometry" />
        </mxCell>
        <mxCell id="PzNOZcH71dPl48KpVUS8-9" value="AMDX Adapter" style="rounded=1;whiteSpace=wrap;html=1;" vertex="1" parent="1">
          <mxGeometry x="620" y="200" width="120" height="60" as="geometry" />
        </mxCell>
        <mxCell id="PzNOZcH71dPl48KpVUS8-10" value="SMS Adapter" style="rounded=1;whiteSpace=wrap;html=1;" vertex="1" parent="1">
          <mxGeometry x="620" y="270" width="120" height="60" as="geometry" />
        </mxCell>
        <mxCell id="PzNOZcH71dPl48KpVUS8-15" value="Keycloak" style="rounded=1;whiteSpace=wrap;html=1;" vertex="1" parent="1">
          <mxGeometry x="280" y="60" width="120" height="60" as="geometry" />
        </mxCell>
        <mxCell id="PzNOZcH71dPl48KpVUS8-16" value="ELK" style="rounded=1;whiteSpace=wrap;html=1;" vertex="1" parent="1">
          <mxGeometry x="500" y="-60" width="120" height="60" as="geometry" />
        </mxCell>
        <mxCell id="PzNOZcH71dPl48KpVUS8-17" value="Jeager" style="rounded=1;whiteSpace=wrap;html=1;" vertex="1" parent="1">
          <mxGeometry x="370" y="-60" width="120" height="60" as="geometry" />
        </mxCell>
        <mxCell id="PzNOZcH71dPl48KpVUS8-18" value="ATNA" style="rounded=1;whiteSpace=wrap;html=1;" vertex="1" parent="1">
          <mxGeometry x="233" y="-60" width="120" height="60" as="geometry" />
        </mxCell>
      </root>
    </mxGraphModel>
  </diagram>
</mxfile>
